<?xml version="1.0" encoding="UTF-8" standalone="no"?>
<svg
   xmlns:dc="http://purl.org/dc/elements/1.1/"
   xmlns:cc="http://creativecommons.org/ns#"
   xmlns:rdf="http://www.w3.org/1999/02/22-rdf-syntax-ns#"
   xmlns:svg="http://www.w3.org/2000/svg"
   xmlns="http://www.w3.org/2000/svg"
   height="17.700001"
   width="143.89999"
   xml:space="preserve"
   viewBox="0 0 143.89999 17.700002"
   y="0px"
   x="0px"
   id="Layer_1"
   version="1.1"><metadata
     id="metadata3474"><rdf:RDF><cc:Work
         rdf:about=""><dc:format>image/svg+xml</dc:format><dc:type
           rdf:resource="http://purl.org/dc/dcmitype/StillImage" /><dc:title>NCR WordmarkAvatar</dc:title></cc:Work></rdf:RDF></metadata><defs
     id="defs3472" /><style
     id="style3426"
     type="text/css">
	.st0{fill:#0D2E54;}
</style><title
     id="title3428">NCR WordmarkAvatar</title><polygon
     transform="translate(-17.929803,-17.634112)"
     style="fill:#ffffff"
     id="polygon3430"
     points="35.3,34 35.3,33.3 35.3,18 33.3,18 33.3,33.3 18,33.3 18,35.3 33.3,35.3 35.3,35.3 "
     class="st0" /><rect
     style="fill:#ffffff"
     id="rect3432"
     height="10.7"
     width="10.7"
     class="st0"
     y="0.36584467"
     x="0.070198394" /><path
     style="fill:#ffffff"
     id="path3434"
     d="m 26.370197,3.4658891 1.7,0 3.6,5.800001 0,-5.800001 1.8,0 0,8.8000039 -1.7,0 -3.6,-5.7000033 0,5.7000033 -1.8,0 0,-8.8000039 z"
     class="st0" /><path
     style="fill:#ffffff"
     id="path3436"
     d="m 38.070197,12.465893 c -0.9,0.1 -1.8,-0.3 -2.4,-0.9 -0.6,-0.7 -0.9,-1.6000004 -0.8,-2.5000029 0,-0.5 0.1,-1.0000002 0.2,-1.4000002 0.1,-0.4000002 0.4,-0.8000002 0.7,-1.1000002 0.3,-0.3000002 0.6,-0.5000002 1,-0.7000002 0.9,-0.3 1.8,-0.3 2.7,0 0.4,0.2 0.7,0.4 1,0.7000002 0.3,0.3 0.5,0.7 0.6,1.1000002 0.2,0.5 0.2,0.9000002 0.2,1.4000002 0,0.5000028 0,1.0000029 -0.2,1.4000029 -0.1,0.4 -0.4,0.8 -0.7,1.1 -0.3,0.3 -0.6,0.5 -1,0.7 -0.4,0.1 -0.8,0.2 -1.3,0.2 z m 0,-1.4 c 0.4,0 0.9,-0.2 1.1,-0.5 0.3,-0.5 0.4,-1.0000001 0.4,-1.5000029 0,-0.5 -0.1,-1.0000002 -0.4,-1.5000002 -0.5,-0.6000002 -1.4,-0.7000002 -2,-0.2000002 -0.1,0 -0.1,0.1000002 -0.2,0.1000002 -0.3,0.5 -0.4,1.0000002 -0.4,1.5000002 0,0.5000028 0.1,1.1000029 0.3,1.5000029 0.3,0.4 0.8,0.6 1.2,0.6 z"
     class="st0" /><path
     style="fill:#ffffff"
     id="path3438"
     d="m 42.670197,5.8658895 1.7,0 0,0.9000002 c 0.2,-0.3 0.5,-0.6000002 0.8,-0.7000002 0.3,-0.2 0.7,-0.3 1,-0.2 l 0.4,0 0.3,0 -0.3,1.5000002 c -0.2,-0.1 -0.5,-0.1 -0.7,-0.1 -0.2,0 -0.4,0 -0.5,0.1 -0.2,0 -0.3,0.1000002 -0.5,0.2000002 -0.1,0.1 -0.2,0.3 -0.3,0.5 -0.1,0.2 -0.1,0.3 -0.1,0.5000002 l 0,3.7000029 -1.7,0 0,-6.4000035 z"
     class="st0" /><path
     style="fill:#ffffff"
     id="path3440"
     d="m 51.970197,11.365893 c -0.4,0.7 -1.2,1.1 -2,1 -0.8,0 -1.5,-0.3 -2,-0.9 -0.5,-0.7 -0.7,-1.6 -0.7,-2.5000029 0,-0.5 0.1,-0.9000002 0.2,-1.4000002 0.1,-0.4000002 0.3,-0.8000002 0.5,-1.1000002 0.2,-0.3000002 0.5,-0.5000002 0.9,-0.7000002 0.4,-0.2 0.8,-0.2 1.2,-0.2 0.3,0 0.7,0.1 1,0.2 0.4,0.1 0.7,0.4 0.9,0.7000002 l 0,-3.0000006 1.7,0 0,8.8000039 -1.7,0 0,-0.9 z m 0,-2.4000029 c 0,-0.3 0,-0.7000002 -0.1,-1.0000002 -0.1,-0.2 -0.2,-0.4 -0.3,-0.6000002 -0.1,-0.1 -0.3,-0.2 -0.5,-0.3 -0.2,0 -0.3,-0.1 -0.5,-0.1 -0.2,0 -0.4,0 -0.5,0.1 -0.2,0.1 -0.3,0.2 -0.4,0.3 -0.1,0.2000002 -0.2,0.4000002 -0.3,0.6000002 -0.2,0.4 -0.3,0.7000002 -0.3,1.0000002 0,0.3 0,0.7000025 0.1,1.0000025 0.1,0.2000004 0.2,0.4000004 0.3,0.6000004 0.1,0.1 0.3,0.3 0.4,0.3 0.2,0.1 0.3,0.1 0.5,0.1 0.4,0 0.7,-0.1 1,-0.4 0.2,-0.2 0.3,-0.4 0.4,-0.6000004 0.1,-0.3 0.1,-0.6000025 0.1,-0.9000025 l 0.1,-0.1 z"
     class="st0" /><path
     style="fill:#ffffff"
     id="path3442"
     d="m 55.170197,3.4658891 1.8,0 0,1.5000002 -1.8,0 0,-1.5000002 z m 0,2.4000004 1.8,0 0,6.4000035 -1.7,0 -0.1,-6.4000035 z"
     class="st0" /><path
     style="fill:#ffffff"
     id="path3444"
     d="m 64.170197,9.865893 c 0,0.7 -0.3,1.3 -0.8,1.8 -0.6,0.5 -1.3,0.7 -2.1,0.7 -0.5,0 -1,-0.1 -1.4,-0.2 -0.4,-0.1 -0.7,-0.4 -1,-0.7 -0.3,-0.3 -0.5,-0.7 -0.6,-1.1 -0.1,-0.5 -0.2,-0.9000001 -0.2,-1.4000029 0,-0.5 0.1,-0.9000002 0.2,-1.4000002 0.2,-0.4000002 0.4,-0.8000002 0.7,-1.1000002 0.3,-0.3000002 0.6,-0.5000002 1,-0.7000002 0.4,-0.2 0.9,-0.3 1.4,-0.2 0.4,0 0.8,0.1 1.1,0.2 0.3,0.1 0.6,0.3 0.8,0.5 0.2,0.2000002 0.4,0.4000002 0.5,0.7000002 0.1,0.3 0.2,0.6000002 0.2,0.9000002 l -1.7,0.2 c 0,-0.3 -0.1,-0.6 -0.3,-0.8000002 -0.2,-0.2 -0.5,-0.3 -0.8,-0.3 -0.4,0 -0.9,0.2 -1.1,0.6000002 -0.1,0.2 -0.2,0.4 -0.2,0.6 0,0.3000002 -0.1,0.5000002 -0.1,0.8000002 0,0.3 0,0.5000028 0.1,0.8000025 0,0.2 0.1,0.5000004 0.2,0.7000004 0.1,0.2 0.2,0.3 0.4,0.4 0.2,0.1 0.4,0.2 0.7,0.2 0.3,0 0.6,-0.1 0.8,-0.3 0.2,-0.2 0.3,-0.5 0.3,-0.8000004 l 1.9,-0.1 z"
     class="st0" /><path
     style="fill:#ffffff"
     id="path3446"
     d="m 75.770197,9.1658901 c 0,0.4000028 -0.1,0.9000029 -0.3,1.3000029 -0.2,0.4 -0.4,0.7 -0.7,1 -0.3,0.3 -0.7,0.5 -1.1,0.7 -1.1,0.4 -2.2,0.3 -3.3,-0.1 -0.5,-0.2 -0.9,-0.5 -1.3,-0.9 -0.4,-0.4 -0.6,-0.9 -0.8,-1.5000004 -0.2,-0.6000025 -0.3,-1.3000027 -0.3,-1.9000027 0,-0.6000002 0.1,-1.3000002 0.3,-1.9000004 0.2,-0.5000002 0.4,-1.0000002 0.8,-1.4000002 0.4,-0.4000002 0.8,-0.7000002 1.3,-0.9000002 0.5,-0.2000002 1.1,-0.3000002 1.7,-0.3000002 0.5,0 1,0.1 1.5,0.2000002 0.4,0.1 0.7,0.3 1,0.6 0.3,0.3 0.5,0.6000002 0.7,0.9000002 0.2,0.4 0.3,0.8000002 0.4,1.2000002 l -1.8,0.2 c -0.1,-0.4 -0.2,-0.9 -0.5,-1.2000002 -0.3,-0.3 -0.7,-0.5 -1.2,-0.4 -0.6,0 -1.2,0.3 -1.6,0.8000002 -0.4,0.7 -0.6,1.5000002 -0.6,2.2000004 -0.1,0.8000002 0.2,1.6000002 0.6,2.2000027 0.4,0.5000004 0.9,0.8000004 1.6,0.8000004 0.5,0 0.9,-0.1 1.2,-0.4 0.3,-0.4000004 0.5,-0.8000001 0.5,-1.2000029 l 1.9,0 z"
     class="st0" /><path
     style="fill:#ffffff"
     id="path3448"
     d="m 76.870197,5.8658895 1.7,0 0,0.9000002 c 0.2,-0.3 0.5,-0.6000002 0.8,-0.8000002 0.3,-0.2 0.7,-0.3 1,-0.2 l 0.4,0 0.3,0 -0.3,1.6000002 c -0.2,-0.1 -0.5,-0.1 -0.7,-0.1 -0.2,0 -0.4,0 -0.5,0.1 -0.2,0 -0.3,0.1000002 -0.5,0.2000002 -0.1,0.1 -0.2,0.3 -0.3,0.5 -0.1,0.2 -0.1,0.3 -0.1,0.5000002 l 0,3.7000029 -1.7,0 0,-6.4000035 z"
     class="st0" /><path
     style="fill:#ffffff"
     id="path3450"
     d="m 87.670197,10.265893 c -0.1,0.6 -0.4,1.2 -0.9,1.6 -0.6,0.4 -1.3,0.6 -2,0.6 -0.9,0.1 -1.8,-0.3 -2.4,-0.9 -0.6,-0.7 -0.9,-1.6000004 -0.8,-2.5000029 0,-0.5 0.1,-1.0000002 0.2,-1.4000002 0.1,-0.4000002 0.4,-0.8000002 0.7,-1.1000002 0.3,-0.3000002 0.6,-0.5000002 1,-0.7000002 0.4,-0.2 0.9,-0.2 1.3,-0.2 0.8,-0.1 1.6,0.2 2.2,0.9000002 0.5,0.6 0.8,1.5000002 0.7,2.3000004 l 0,0.7000028 -4.4,0 c 0,0.3999997 0.1,0.9000001 0.4,1.2000001 0.3,0.3 0.7,0.5 1.1,0.4 0.6,0.1 1.1,-0.3 1.2,-0.9 l 1.7,0 z m -1.6,-1.9000031 c 0,-0.4 -0.1,-0.7 -0.3,-1.0000002 -0.3,-0.3 -0.6,-0.4 -1,-0.4 -0.2,0 -0.4,0 -0.6,0.1 -0.2,0.1 -0.3,0.2 -0.4,0.3 -0.1,0.1000002 -0.2,0.3000002 -0.3,0.4000002 -0.1,0.2 -0.1,0.4 -0.1,0.5 l 2.7,0.1 z"
     class="st0" /><path
     style="fill:#ffffff"
     id="path3452"
     d="m 93.470197,11.365893 c -0.4,0.7 -1.2,1.1 -2,1 -0.8,0 -1.5,-0.3 -2,-0.9 -0.5,-0.7 -0.7,-1.6 -0.7,-2.5000029 0,-0.5 0.1,-0.9000002 0.2,-1.4000002 0.1,-0.4000002 0.3,-0.8000002 0.6,-1.1000002 0.2,-0.3000002 0.5,-0.5000002 0.9,-0.7000002 0.4,-0.2 0.8,-0.3 1.2,-0.2 0.3,0 0.7,0.1 1,0.2 0.3,0.1 0.7,0.4 0.9,0.7000002 l 0,-3.0000006 1.600003,0 0,8.8000039 -1.700003,0 0,-0.9 z m 0,-2.4000029 c 0,-0.3 0,-0.7000002 -0.1,-1.0000002 -0.1,-0.2 -0.2,-0.4 -0.3,-0.6000002 -0.1,-0.1 -0.3,-0.2 -0.5,-0.3 -0.2,0 -0.3,-0.1 -0.5,-0.1 -0.2,0 -0.4,0 -0.5,0.1 -0.2,0.1 -0.3,0.2 -0.4,0.3 -0.1,0.2000002 -0.2,0.4000002 -0.3,0.6000002 -0.1,0.3 -0.1,0.6000002 -0.1,0.9000002 0,0.3 0,0.7000028 0.1,1.0000029 0.1,0.2 0.2,0.4 0.3,0.6 0.1,0.2 0.3,0.3 0.4,0.3 0.2,0.1 0.3,0.1 0.5,0.1 0.4,0 0.7,-0.1 1,-0.4 0.2,-0.2 0.3,-0.4 0.4,-0.6 0.1,-0.3000001 0.1,-0.6000029 0.1,-0.9000029 l -0.1,0 z"
     class="st0" /><path
     style="fill:#ffffff"
     id="path3454"
     d="m 96.5702,3.4658891 1.800003,0 0,1.5000002 -1.800003,0 0,-1.5000002 z m 0,2.4000004 1.700003,0 0,6.4000035 -1.700003,0 0,-6.4000035 z"
     class="st0" /><path
     style="fill:#ffffff"
     id="path3456"
     d="m 100.27028,7.1658897 -1.000029,0 0,-1.3000002 1.000029,0 0,-1.7000004 1.7,0 0,1.7000004 1.5,0 0,1.3000002 -1.5,0 0,3.0000033 c 0,0.2 0,0.5 0.2,0.7 0.2,0.1 0.3,0.2 0.5,0.2 l 0.3,0 c 0.1,0 0.2,0 0.3,-0.1 l 0.2,1.3 c -0.2,0.1 -0.5,0.1 -0.7,0.1 -0.2,0 -0.4,0 -0.6,0 -0.6,0 -1.1,-0.1 -1.6,-0.5 -0.4,-0.5 -0.600003,-1.1 -0.5,-1.7 l 0,-3.0000033 z"
     class="st0" /><path
     style="fill:#ffffff"
     id="path3458"
     d="m 107.37028,3.4658891 3.1,0 c 0.6,0 1.2,0.1 1.7,0.2 0.4,0.1 0.8,0.3 1.1,0.6 0.2,0.2000002 0.4,0.5000002 0.5,0.9000002 0.2,0.8000002 0.2,1.6000004 -0.2,2.4000006 -0.2,0.4 -0.6,0.8 -1,1.0000002 l 1.8,3.7000029 -2,0 -1.5,-3.3000029 -1.7,0 0,3.3000029 -1.8,0 0,-8.8000039 z m 3.3,4.0000008 c 0.2,0 0.5,0 0.7,-0.1000002 0.2,0 0.3,-0.1 0.4,-0.3 0.1,-0.1 0.2,-0.2 0.2,-0.4 0,-0.2 0.1,-0.3000002 0.1,-0.5000002 0,-0.2 0,-0.3 -0.1,-0.5 -0.1,-0.1 -0.1,-0.3000002 -0.3,-0.4000002 -0.1,-0.1 -0.3,-0.2 -0.5,-0.3 -0.3,-0.1 -0.5,-0.1 -0.8,-0.1 l -1.3,0 0,2.4000004 1.6,0 z"
     class="st0" /><path
     style="fill:#ffffff"
     id="path3460"
     d="m 119.17028,11.465893 c -0.2,0.3 -0.5,0.5 -0.9,0.7 -0.4,0.2 -0.8,0.3 -1.2,0.2 -0.3,0 -0.6,0 -0.8,-0.1 -0.2,-0.1 -0.5,-0.2 -0.7,-0.4 -0.2,-0.1 -0.4,-0.3 -0.5,-0.5 -0.1,-0.3 -0.2,-0.6 -0.2,-0.9 0,-0.4 0.1,-0.8000004 0.3,-1.1000029 0.2,-0.3 0.5,-0.5 0.8,-0.6 0.3,-0.2 0.7,-0.3 1.1,-0.3 0.4,-0.1000002 0.8,-0.1000002 1.2,-0.1000002 l 0.8,0 0,-0.3 c 0,-0.3 -0.1,-0.6 -0.3,-0.8000002 -0.2,-0.2 -0.5,-0.2 -0.8,-0.2 -0.7,0 -1.1,0.3 -1.2,0.8000002 l -1.6,-0.1 c 0.1,-0.6000002 0.4,-1.1000002 0.9,-1.5000004 0.6,-0.3 1.3,-0.5 1.9,-0.5 0.4,0 0.8,0.1 1.2,0.2 0.3,0.1 0.6,0.3 0.8,0.5000002 0.2,0.2 0.4,0.5 0.5,0.8 0.1,0.3000002 0.1,0.7000002 0.1,1.1000002 l 0,4.1000031 -1.5,0 0.1,-1 z m 0,-2.0000001 -0.8,0 c -0.3,0 -0.6,0.1 -0.9,0.1 -0.2,0 -0.3,0.1 -0.5,0.1999997 -0.1,0.1000004 -0.2,0.2 -0.2,0.3000004 0,0.1 -0.1,0.2 -0.1,0.4 0,0.2 0.1,0.4 0.2,0.5 0.2,0.1 0.4,0.2 0.6,0.2 0.4,0 0.8,-0.1 1.1,-0.3 0.2,-0.1 0.3,-0.3 0.4,-0.4 0.1,-0.2 0.2,-0.4 0.1,-0.7000004 l 0.1,-0.2999997 z"
     class="st0" /><path
     style="fill:#ffffff"
     id="path3462"
     d="m 122.57028,7.1658897 -1,0 0,-1.3000002 1,0 0,-1.7000004 1.7,0 0,1.7000004 1.5,0 0,1.3000002 -1.5,0 0,3.0000033 c 0,0.2 0,0.5 0.2,0.7 0.2,0.1 0.3,0.2 0.5,0.2 l 0.4,0 c 0.1,0 0.2,0 0.4,-0.1 l 0.2,1.3 c -0.2,0.1 -0.5,0.1 -0.7,0.1 -0.2,0 -0.4,0 -0.6,0 -0.6,0 -1.1,-0.1 -1.6,-0.5 -0.4,-0.5 -0.6,-1.1 -0.5,-1.7 l 0,-3.0000033 z"
     class="st0" /><path
     style="fill:#ffffff"
     id="path3464"
     d="m 126.87028,3.4658891 1.8,0 0,1.5000002 -1.8,0 0,-1.5000002 z m 0,2.4000004 1.7,0 0,6.4000035 -1.7,0 0,-6.4000035 z"
     class="st0" /><path
     style="fill:#ffffff"
     id="path3466"
     d="m 130.17028,5.8658895 1.7,0 0,0.9000002 c 0.2,-0.3 0.5,-0.6000002 0.9,-0.8000002 0.3,-0.2 0.7,-0.3 1.1,-0.3 0.6,0 1.2,0.2 1.6,0.6 0.4,0.5000002 0.6,1.2000004 0.5,1.8000004 l 0,4.2000031 -1.7,0 0,-4.0000031 c 0,-0.3 -0.1,-0.7 -0.2,-0.9000002 -0.2,-0.2 -0.4,-0.2 -0.7,-0.2 -0.2,0 -0.4,0 -0.6,0.1 -0.2,0.1 -0.3,0.2000002 -0.4,0.3000002 -0.1,0.1 -0.2,0.3 -0.3,0.4 -0.1,0.2 -0.1,0.3 -0.1,0.5000002 l 0,3.9000029 -1.7,0 0,-6.5000035 z"
     class="st0" /><path
     style="fill:#ffffff"
     id="path3468"
     d="m 139.17028,12.665893 c 0,0.1 0.1,0.3 0.1,0.4 0.1,0.1 0.1,0.2 0.2,0.2 0.1,0.1 0.2,0.1 0.4,0.1 0.2,0 0.4,0 0.5,0 0.3,0 0.5,0 0.8,-0.2 0.2,-0.1 0.3,-0.3 0.4,-0.5 0.1,-0.2 0.1,-0.4 0.2,-0.7 0,-0.2 0,-0.5 0,-0.8 l 0,-0.2 c -0.2,0.3 -0.5,0.5 -0.8,0.7 -0.4,0.2 -0.7,0.2 -1.1,0.2 -0.8,0 -1.5,-0.3 -2,-0.9 -0.5,-0.7 -0.7,-1.5000001 -0.7,-2.3000029 0,-0.4000002 0.1,-0.9000002 0.2,-1.3000004 0.1,-0.4 0.3,-0.7 0.6,-1.0000002 0.2,-0.3 0.5,-0.5 0.9,-0.7 0.4,-0.2 0.8,-0.2 1.2,-0.2 0.3,0 0.7,0.1 1,0.2 0.4,0.2 0.7,0.4 0.9,0.7 l 0,-0.7 1.7,0 0,5.7000035 c 0,0.5 0,1 -0.2,1.5 -0.1,0.4 -0.3,0.8 -0.5,1.1 -0.3,0.3 -0.6,0.5 -0.9,0.7 -0.5,0.2 -0.9,0.2 -1.4,0.2 -0.4,0 -0.9,0 -1.3,-0.1 -0.3,-0.1 -0.6,-0.2 -0.9,-0.4 -0.2,-0.2 -0.4,-0.4 -0.5,-0.7 -0.1,-0.3 -0.2,-0.6 -0.3,-0.9 l 1.5,-0.1 z m 2.7,-3.9000029 c 0,-0.3 0,-0.6000002 -0.1,-0.9000002 -0.1,-0.2 -0.2,-0.4 -0.3,-0.5000002 -0.1,-0.1 -0.3,-0.2 -0.5,-0.2 -0.2,0 -0.3,-0.1 -0.5,-0.1 -0.2,0 -0.4,0 -0.5,0.1 -0.2,0.1 -0.3,0.2 -0.4,0.3000002 -0.1,0.2 -0.2,0.4 -0.3,0.6 -0.1,0.3 -0.1,0.5000002 -0.1,0.8000002 0,0.5 0.1,1.0000029 0.4,1.5000029 0.3,0.3 0.6,0.4 1,0.4 0.2,0 0.4,0 0.6,-0.1 0.2,-0.1 0.3,-0.2 0.5,-0.3 0.1,-0.1 0.2,-0.3 0.3,-0.5 0.1,-0.3000001 0.1,-0.5000029 0.1,-0.8000029 l -0.2,-0.3 z"
     class="st0" /></svg>