<?xml version="1.0" standalone="no"?>
<!DOCTYPE svg PUBLIC "-//W3C//DTD SVG 20010904//EN"
 "http://www.w3.org/TR/2001/REC-SVG-20010904/DTD/svg10.dtd">
<svg version="1.0" xmlns="http://www.w3.org/2000/svg"
 width="700.000000pt" height="700.000000pt" viewBox="0 0 700.000000 700.000000"
 preserveAspectRatio="xMidYMid meet">
<metadata>
Created by potrace 1.11, written by Peter Selinger 2001-2013
</metadata>
<g transform="translate(0.000000,700.000000) scale(0.100000,-0.100000)"
fill="#000000" stroke="none">
<path d="M0 4761 l0 -2239 2238 1 2237 2 0 2235 0 2235 -2237 3 -2238 2 0
-2239z"/>
<path d="M5880 6998 c-1 -2 -1 -1325 -1 -2940 l-1 -2936 -2891 -1 c-1591 0
-2913 0 -2939 -1 l-48 0 0 -560 0 -560 3500 0 3500 0 0 3500 0 3500 -560 0
c-308 0 -560 -1 -560 -2z"/>
</g>
</svg>
